<?xml version="1.0"?>
<svg xmlns="http://www.w3.org/2000/svg" xmlns:xlink="http://www.w3.org/1999/xlink" xmlns:svgjs="http://svgjs.com/svgjs" version="1.1" width="512" height="512" x="0" y="0" viewBox="0 0 512 512" style="enable-background:new 0 0 512 512" xml:space="preserve" class=""><g>
<g xmlns="http://www.w3.org/2000/svg">
	<g>
		<g>
			<rect x="176" y="192" width="64" height="64" fill="#646464" data-original="#000000" style=""/>
			<rect x="272" y="192" width="64" height="64" fill="#646464" data-original="#000000" style=""/>
			<rect x="368" y="192" width="64" height="64" fill="#646464" data-original="#000000" style=""/>
			<rect x="80" y="288" width="64" height="64" fill="#646464" data-original="#000000" style=""/>
			<rect x="176" y="288" width="64" height="64" fill="#646464" data-original="#000000" style=""/>
			<rect x="272" y="288" width="64" height="64" fill="#646464" data-original="#000000" style=""/>
			<rect x="368" y="288" width="64" height="64" fill="#646464" data-original="#000000" style=""/>
			<rect x="80" y="384" width="64" height="64" fill="#646464" data-original="#000000" style=""/>
			<rect x="176" y="384" width="64" height="64" fill="#646464" data-original="#000000" style=""/>
			<rect x="272" y="384" width="64" height="64" fill="#646464" data-original="#000000" style=""/>
			<path d="M432,64V16c0-8.801-7.168-16-16-16h-64c-8.832,0-16,7.199-16,16v48H176V16c0-8.801-7.168-16-16-16H96     c-8.832,0-16,7.199-16,16v48H16v448h480V64H432z M368,32h32v64h-32V32z M112,32h32v64h-32V32z M464,480H48V160h416V480z" fill="#646464" data-original="#000000" style=""/>
		</g>
	</g>
</g>
<g xmlns="http://www.w3.org/2000/svg">
</g>
<g xmlns="http://www.w3.org/2000/svg">
</g>
<g xmlns="http://www.w3.org/2000/svg">
</g>
<g xmlns="http://www.w3.org/2000/svg">
</g>
<g xmlns="http://www.w3.org/2000/svg">
</g>
<g xmlns="http://www.w3.org/2000/svg">
</g>
<g xmlns="http://www.w3.org/2000/svg">
</g>
<g xmlns="http://www.w3.org/2000/svg">
</g>
<g xmlns="http://www.w3.org/2000/svg">
</g>
<g xmlns="http://www.w3.org/2000/svg">
</g>
<g xmlns="http://www.w3.org/2000/svg">
</g>
<g xmlns="http://www.w3.org/2000/svg">
</g>
<g xmlns="http://www.w3.org/2000/svg">
</g>
<g xmlns="http://www.w3.org/2000/svg">
</g>
<g xmlns="http://www.w3.org/2000/svg">
</g>
</g></svg>
